<?xml version="1.0" ?><svg id="Layer_1" style="enable-background:new 0 0 100 100;" version="1.1" viewBox="0 0 100 100" xml:space="preserve" xmlns="http://www.w3.org/2000/svg" xmlns:xlink="http://www.w3.org/1999/xlink"><g><path d="M76,62.3l-1.4-0.6c-0.8-0.3-1.7-0.5-2.7-0.5H28.1c-0.9,0-1.8,0.2-2.7,0.5L24,62.3v-23c0-11.5,9.3-21,20.8-21.2   c0.1,0,0.2,0,0.3,0h9.6c0.1,0,0.3,0,0.4,0l0,0C66.7,18.2,76,27.8,76,39.3V62.3z M45.1,20c0,0-0.1,0-0.1,0   C34.5,20.2,26,28.8,26,39.3v20.2c0.7-0.2,1.4-0.2,2.1-0.2h43.9c0.7,0,1.4,0.1,2.1,0.2V39.3c0-10.4-8.5-19-18.9-19.2H55   c-0.2,0-0.2,0-0.3,0H45.1C45.1,20,45.1,20,45.1,20z"/></g><g><path d="M71.9,77H28.1c-5,0-9.1-3.4-9.1-7.5v-2.7c0-3.1,2.3-5.8,5.8-6.9c1.1-0.4,2.2-0.5,3.4-0.5h43.9c1.2,0,2.3,0.2,3.4,0.5   c3.5,1.1,5.8,3.9,5.8,6.9v2.7C81.1,73.7,77,77,71.9,77z M28.1,61.4c-1,0-1.9,0.1-2.7,0.4c-2.7,0.9-4.4,2.8-4.4,5v2.7   c0,3,3.2,5.5,7.1,5.5h43.9c3.9,0,7.1-2.5,7.1-5.5v-2.7c0-2.2-1.7-4.2-4.4-5c-0.9-0.3-1.8-0.4-2.8-0.4H28.1z"/></g><g><path d="M55.8,20.1L55,20c-0.1,0-0.1,0-0.2,0H44.4l-0.2-0.7c-0.2-0.6-0.2-1.1-0.2-1.7c0-3.4,2.8-6.2,6.2-6.2c3.4,0,6.2,2.8,6.2,6.2   c0,0.6-0.1,1.2-0.2,1.7L55.8,20.1z M45.9,18h8.3c0-0.1,0-0.3,0-0.4c0-2.3-1.9-4.2-4.2-4.2c-2.3,0-4.2,1.9-4.2,4.2   C45.9,17.7,45.9,17.9,45.9,18z"/></g><g><path d="M50,86.6c-5.5,0-9.9-4.4-9.9-9.9c0-0.3,0-0.5,0-0.7l0.1-0.9h19.6l0.1,0.9c0,0.2,0,0.5,0,0.7C59.9,82.1,55.5,86.6,50,86.6z    M42.1,77c0.2,4.2,3.7,7.6,7.9,7.6s7.7-3.4,7.9-7.6H42.1z"/></g></svg>